<svg>
  <defs>
    <svg id="home"><path d="M10,20V14H14V20H19V12H22L12,3L2,12H5V20H10Z" /></svg>
    <svg id="send"><path d="M2,21L23,12L2,3V10L17,12L2,14V21Z" /></svg>
    <svg id="chevron-left"><path d="M15.41,16.58L10.83,12L15.41,7.41L14,6L8,12L14,18L15.41,16.58Z" /></svg>
    <svg id="chevron-right"><path d="M8.59,16.58L13.17,12L8.59,7.41L10,6L16,12L10,18L8.59,16.58Z" /></svg>
    <svg id="book-open"><path d="M19,2L14,6.5V17.5L19,13V2M6.5,5C4.55,5 2.45,5.4 1,6.5V21.16C1,21.41 1.25,21.66 1.5,21.66C1.6,21.66 1.65,21.59 1.75,21.59C3.1,20.94 5.05,20.5 6.5,20.5C8.45,20.5 10.55,20.9 12,22C13.35,21.15 15.8,20.5 17.5,20.5C19.15,20.5 20.85,20.81 22.25,21.56C22.35,21.61 22.4,21.59 22.5,21.59C22.75,21.59 23,21.34 23,21.09V6.5C22.4,6.05 21.75,5.75 21,5.5V7.5L21,13V19C19.9,18.65 18.7,18.5 17.5,18.5C15.8,18.5 13.35,19.15 12,20V13L12,8.5V6.5C10.55,5.4 8.45,5 6.5,5V5Z" /></svg>
    <svg id="rec"><path fill="#000000" d="M12.5,5A7.5,7.5 0 0,0 5,12.5A7.5,7.5 0 0,0 12.5,20A7.5,7.5 0 0,0 20,12.5A7.5,7.5 0 0,0 12.5,5M7,10H9A1,1 0 0,1 10,11V12C10,12.5 9.62,12.9 9.14,12.97L10.31,15H9.15L8,13V15H7M12,10H14V11H12V12H14V13H12V14H14V15H12A1,1 0 0,1 11,14V11A1,1 0 0,1 12,10M16,10H18V11H16V14H18V15H16A1,1 0 0,1 15,14V11A1,1 0 0,1 16,10M8,11V12H9V11" /></svg>
    </defs>
</svg>
