<svg>
  <defs>
    <svg id="home"><path d="M10,20V14H14V20H19V12H22L12,3L2,12H5V20H10Z" /></svg>
    <svg id="send"><path d="M2,21L23,12L2,3V10L17,12L2,14V21Z" /></svg>
    <svg id="chevron-left"><path d="M15.41,16.58L10.83,12L15.41,7.41L14,6L8,12L14,18L15.41,16.58Z" /></svg>
    <svg id="chevron-right"><path d="M8.59,16.58L13.17,12L8.59,7.41L10,6L16,12L10,18L8.59,16.58Z" /></svg>
    <svg id="book-open"><path d="M19,2L14,6.5V17.5L19,13V2M6.5,5C4.55,5 2.45,5.4 1,6.5V21.16C1,21.41 1.25,21.66 1.5,21.66C1.6,21.66 1.65,21.59 1.75,21.59C3.1,20.94 5.05,20.5 6.5,20.5C8.45,20.5 10.55,20.9 12,22C13.35,21.15 15.8,20.5 17.5,20.5C19.15,20.5 20.85,20.81 22.25,21.56C22.35,21.61 22.4,21.59 22.5,21.59C22.75,21.59 23,21.34 23,21.09V6.5C22.4,6.05 21.75,5.75 21,5.5V7.5L21,13V19C19.9,18.65 18.7,18.5 17.5,18.5C15.8,18.5 13.35,19.15 12,20V13L12,8.5V6.5C10.55,5.4 8.45,5 6.5,5V5Z" /></svg>
    <svg id="rec"><path d="M12.5,5A7.5,7.5 0 0,0 5,12.5A7.5,7.5 0 0,0 12.5,20A7.5,7.5 0 0,0 20,12.5A7.5,7.5 0 0,0 12.5,5M7,10H9A1,1 0 0,1 10,11V12C10,12.5 9.62,12.9 9.14,12.97L10.31,15H9.15L8,13V15H7M12,10H14V11H12V12H14V13H12V14H14V15H12A1,1 0 0,1 11,14V11A1,1 0 0,1 12,10M16,10H18V11H16V14H18V15H16A1,1 0 0,1 15,14V11A1,1 0 0,1 16,10M8,11V12H9V11" /></svg>
    <svg id="account"><path d="M12,4A4,4 0 0,1 16,8A4,4 0 0,1 12,12A4,4 0 0,1 8,8A4,4 0 0,1 12,4M12,14C16.42,14 20,15.79 20,18V20H4V18C4,15.79 7.58,14 12,14Z" /></svg>
    <svg id="lock"><path d="M12,17A2,2 0 0,0 14,15C14,13.89 13.1,13 12,13A2,2 0 0,0 10,15A2,2 0 0,0 12,17M18,8A2,2 0 0,1 20,10V20A2,2 0 0,1 18,22H6A2,2 0 0,1 4,20V10C4,8.89 4.9,8 6,8H7V6A5,5 0 0,1 12,1A5,5 0 0,1 17,6V8H18M12,3A3,3 0 0,0 9,6V8H15V6A3,3 0 0,0 12,3Z"/></svg>
    <svg id="logout"><path d="M14.08,15.59L16.67,13H7V11H16.67L14.08,8.41L15.5,7L20.5,12L15.5,17L14.08,15.59M19,3A2,2 0 0,1 21,5V9.67L19,7.67V5H5V19H19V16.33L21,14.33V19A2,2 0 0,1 19,21H5C3.89,21 3,20.1 3,19V5C3,3.89 3.89,3 5,3H19Z" /></svg>

    <svg id="note-multiple-outline"><path d="M3,6V22H21V24H3A2,2 0 0,1 1,22V6H3M16,9H21.5L16,3.5V9M7,2H17L23,8V18A2,2 0 0,1 21,20H7C5.89,20 5,19.1 5,18V4A2,2 0 0,1 7,2M7,4V18H21V11H14V4H7Z" /></svg>
    <svg id="format-list-bulleted"><path d="M7,5H21V7H7V5M7,13V11H21V13H7M4,4.5A1.5,1.5 0 0,1 5.5,6A1.5,1.5 0 0,1 4,7.5A1.5,1.5 0 0,1 2.5,6A1.5,1.5 0 0,1 4,4.5M4,10.5A1.5,1.5 0 0,1 5.5,12A1.5,1.5 0 0,1 4,13.5A1.5,1.5 0 0,1 2.5,12A1.5,1.5 0 0,1 4,10.5M7,19V17H21V19H7M4,16.5A1.5,1.5 0 0,1 5.5,18A1.5,1.5 0 0,1 4,19.5A1.5,1.5 0 0,1 2.5,18A1.5,1.5 0 0,1 4,16.5Z" /></svg>
    <svg id="cloud-download"><path d="M17,13L12,18L7,13H10V9H14V13M19.35,10.03C18.67,6.59 15.64,4 12,4C9.11,4 6.6,5.64 5.35,8.03C2.34,8.36 0,10.9 0,14A6,6 0 0,0 6,20H19A5,5 0 0,0 24,15C24,12.36 21.95,10.22 19.35,10.03Z" /></svg>
    <svg id="video"><path d="M17,10.5V7A1,1 0 0,0 16,6H4A1,1 0 0,0 3,7V17A1,1 0 0,0 4,18H16A1,1 0 0,0 17,17V13.5L21,17.5V6.5L17,10.5Z" /></svg>

    <svg id="camera-enhance"><path d="M9,3L7.17,5H4A2,2 0 0,0 2,7V19A2,2 0 0,0 4,21H20A2,2 0 0,0 22,19V7A2,2 0 0,0 20,5H16.83L15,3M12,18A5,5 0 0,1 7,13A5,5 0 0,1 12,8A5,5 0 0,1 17,13A5,5 0 0,1 12,18M12,17L13.25,14.25L16,13L13.25,11.75L12,9L10.75,11.75L8,13L10.75,14.25" /></svg>
    <svg id="blank-page"><path d="M19,2L14,6.5V17.5L19,13V2M6.5,5C4.55,5 2.45,5.4 1,6.5V21.16C1,21.41 1.25,21.66 1.5,21.66C1.6,21.66 1.65,21.59 1.75,21.59C3.1,20.94 5.05,20.5 6.5,20.5C8.45,20.5 10.55,20.9 12,22C13.35,21.15 15.8,20.5 17.5,20.5C19.15,20.5 20.85,20.81 22.25,21.56C22.35,21.61 22.4,21.59 22.5,21.59C22.75,21.59 23,21.34 23,21.09V6.5C22.4,6.05 21.75,5.75 21,5.5V7.5L21,13V19C19.9,18.65 18.7,18.5 17.5,18.5C15.8,18.5 13.35,19.15 12,20V13L12,8.5V6.5C10.55,5.4 8.45,5 6.5,5V5Z" /></svg>

    <svg id="cursor-default-outline"><path d="M10.07,14.27C10.57,14.03 11.16,14.25 11.4,14.75L13.7,19.74L15.5,18.89L13.19,13.91C12.95,13.41 13.17,12.81 13.67,12.58L13.95,12.5L16.25,12.05L8,5.12V15.9L9.82,14.43L10.07,14.27M13.64,21.97C13.14,22.21 12.54,22 12.31,21.5L10.13,16.76L7.62,18.78C7.45,18.92 7.24,19 7,19A1,1 0 0,1 6,18V3A1,1 0 0,1 7,2C7.24,2 7.47,2.09 7.64,2.23L7.65,2.22L19.14,11.86C19.57,12.22 19.62,12.85 19.27,13.27C19.12,13.45 18.91,13.57 18.7,13.61L15.54,14.23L17.74,18.96C18,19.46 17.76,20.05 17.26,20.28L13.64,21.97Z" /></svg>
    <svg id="pencil"><path d="M16.84,2.73C16.45,2.73 16.07,2.88 15.77,3.17L13.65,5.29L18.95,10.6L21.07,8.5C21.67,7.89 21.67,6.94 21.07,6.36L17.9,3.17C17.6,2.88 17.22,2.73 16.84,2.73M12.94,6L4.84,14.11L7.4,14.39L7.58,16.68L9.86,16.85L10.15,19.41L18.25,11.3M4.25,15.04L2.5,21.73L9.2,19.94L8.96,17.78L6.65,17.61L6.47,15.29" /></svg>
    <svg id="shape-rectangle-plus"><path d="M19,6H22V8H19V11H17V8H14V6H17V3H19V6M17,17V14H19V19H3V6H11V8H5V17H17Z" /></svg>
    <svg id="message-text"><path d="M20,2H4A2,2 0 0,0 2,4V22L6,18H20A2,2 0 0,0 22,16V4A2,2 0 0,0 20,2M6,9H18V11H6M14,14H6V12H14M18,8H6V6H18" /></svg>
    <svg id="format-line-weight"><path d="M3,17H21V15H3V17M3,20H21V19H3V20M3,13H21V10H3V13M3,4V8H21V4H3Z" /></svg>

    <svg id="deselect"> <path d="M0.5,3.77L1.78,2.5L21.5,22.22L20.23,23.5L18.73,22H17V20.27L3.73,7H2V5.27L0.5,3.77M4,2H7V4H5.82L3.83,2H4M22,4V7H20V4H17V2H20A2,2 0 0,1 22,4M20,17H22V20L22,20.17L20,18.18V17M2,20V17H4V20H7V22H4A2,2 0 0,1 2,20M10,2H14V4H10V2M10,20H14V22H10V20M20,10H22V14H20V10M2,10H4V14H2V10Z" /></svg>
    <svg id="select"><path d="M4,3H5V5H3V4A1,1 0 0,1 4,3M20,3A1,1 0 0,1 21,4V5H19V3H20M15,5V3H17V5H15M11,5V3H13V5H11M7,5V3H9V5H7M21,20A1,1 0 0,1 20,21H19V19H21V20M15,21V19H17V21H15M11,21V19H13V21H11M7,21V19H9V21H7M4,21A1,1 0 0,1 3,20V19H5V21H4M3,15H5V17H3V15M21,15V17H19V15H21M3,11H5V13H3V11M21,11V13H19V11H21M3,7H5V9H3V7M21,7V9H19V7H21Z" /></svg>
    <svg id="delete"><path d="M19,4H15.5L14.5,3H9.5L8.5,4H5V6H19M6,19A2,2 0 0,0 8,21H16A2,2 0 0,0 18,19V7H6V19Z" /></svg>
    <svg id="open"><path d="M14,3V5H17.59L7.76,14.83L9.17,16.24L19,6.41V10H21V3M19,19H5V5H12V3H5C3.89,3 3,3.9 3,5V19A2,2 0 0,0 5,21H19A2,2 0 0,0 21,19V12H19V19Z" /></svg>

    <svg id="close"><path d="M12,20C7.59,20 4,16.41 4,12C4,7.59 7.59,4 12,4C16.41,4 20,7.59 20,12C20,16.41 16.41,20 12,20M12,2C6.47,2 2,6.47 2,12C2,17.53 6.47,22 12,22C17.53,22 22,17.53 22,12C22,6.47 17.53,2 12,2M14.59,8L12,10.59L9.41,8L8,9.41L10.59,12L8,14.59L9.41,16L12,13.41L14.59,16L16,14.59L13.41,12L16,9.41L14.59,8Z" /></svg>
    <svg id="expand"><path d="M9.5,13.09L10.91,14.5L6.41,19H10V21H3V14H5V17.59L9.5,13.09M10.91,9.5L9.5,10.91L5,6.41V10H3V3H10V5H6.41L10.91,9.5M14.5,13.09L19,17.59V14H21V21H14V19H17.59L13.09,14.5L14.5,13.09M13.09,9.5L17.59,5H14V3H21V10H19V6.41L14.5,10.91L13.09,9.5Z" /></svg>

    <svg id="play-arrow"><path d="M8,5.14V19.14L19,12.14L8,5.14Z" /></svg>
    <svg id="pause"><path d="M6 19h4V5H6v14zm8-14v14h4V5h-4z" /></svg>
    <svg id="step-forward"><path d="M4 18l8.5-6L4 6v12zm9-12v12l8.5-6L13 6z" /></svg>
    <svg id="step-rewind"><path d="M11 18V6l-8.5 6 8.5 6zm.5-6l8.5 6V6l-8.5 6z" /></svg>
    <svg id="volume-high"><path d="M14,3.23V5.29C16.89,6.15 19,8.83 19,12C19,15.17 16.89,17.84 14,18.7V20.77C18,19.86 21,16.28 21,12C21,7.72 18,4.14 14,3.23M16.5,12C16.5,10.23 15.5,8.71 14,7.97V16C15.5,15.29 16.5,13.76 16.5,12M3,9V15H7L12,20V4L7,9H3Z"/></svg>
    <svg id="volume-off"><path d="M16.5 12c0-1.77-1.02-3.29-2.5-4.03v2.21l2.45 2.45c.03-.2.05-.41.05-.63zm2.5 0c0 .94-.2 1.82-.54 2.64l1.51 1.51C20.63 14.91 21 13.5 21 12c0-4.28-2.99-7.86-7-8.77v2.06c2.89.86 5 3.54 5 6.71zM4.27 3L3 4.27 7.73 9H3v6h4l5 5v-6.73l4.25 4.25c-.67.52-1.42.93-2.25 1.18v2.06c1.38-.31 2.63-.95 3.69-1.81L19.73 21 21 19.73l-9-9L4.27 3zM12 4L9.91 6.09 12 8.18V4z" /></svg>
    <svg id="video-speed" xmlns="http://www.w3.org/2000/svg" xmlns:xlink="http://www.w3.org/1999/xlink" x="0px" y="0px" viewBox="0 0 428.948 428.948" style="enable-background:new 0 0 428.948 428.948;" xml:space="preserve">
    		<path style="fill:#030104;" d="M221.988,280.48c9.664,0,17.516-7.889,17.516-17.563c0-9.653-7.852-17.487-17.516-17.487
			l-79.361-58.371l61.844,76.985C205.045,273.208,212.68,280.48,221.988,280.48z"/>
		<rect x="127.008" y="332.197" style="fill:#030104;" width="174.933" height="41.513"/>
		<path style="fill:#030104;" d="M366.13,118.057c-40.51-40.509-94.369-62.818-151.656-62.818
			c-57.288,0-111.148,22.309-151.657,62.818S0,212.425,0,269.713c0,36.99,9.319,72.539,26.816,103.997h40.086l29.319-16.929
			l-12.948-22.428l-37.7,21.768c-13.319-25.932-20.843-55.307-20.843-86.408c0-5.504,0.25-10.951,0.711-16.338l44.952,7.926
			l4.497-25.504l-45.481-8.019c8.127-35.883,26.451-67.937,51.755-92.948l30.815,36.725l19.839-16.646l-31.049-37.002
			c28.471-21.379,63.128-34.938,100.757-37.485v49.117h25.896V80.422c37.629,2.549,72.286,16.107,100.758,37.486l-31.05,37.001
			l19.838,16.646l30.816-36.726c25.303,25.012,43.627,57.066,51.754,92.948l-45.48,8.021l4.498,25.502l44.949-7.927
			c0.461,5.388,0.711,10.834,0.711,16.338c0,31.103-7.521,60.479-20.842,86.409l-37.701-21.766l-12.947,22.427l29.318,16.927h40.088
			c17.498-31.458,26.816-67.007,26.816-103.997C428.949,212.424,406.638,158.564,366.13,118.057z"/>
	</svg>
<svg id="linear3"  x="0px" y="4px" > <path d="M0 4 L6 4 L6 9 L0 9 Z M8 4 L14 4 L14 9 L8 9 Z   M16 4 L22 4 L22 9 L16 9 Z" /></svg>
<svg id="linear2"  x="0px" y="4px" > <path d="M0 4 L10 4 L10 9 L0 9 Z   M12 4 L22 4 L22 9 L12 9 Z" /></svg>
<svg id="tabular3" x="0px" y="8px" >  <path d="M0 0 L8 0 L8 5 L0 5 Z M0 7 L8 7 L8 12 L0 12 Z  M10 0 L28 0 L28 12  L10 12  Z" /></svg>
<svg id="tabular2" x="0px" y="8px" >  <path d="M0 0 L8 0 L8 5 L0 5 Z M10 0 L28 0 L28 12  L10 12  Z" /></svg>
<svg id="marker" transform="rotate(-90)" fill="#000000" height="24" viewBox="0 0 24 24" width="24" xmlns="http://www.w3.org/2000/svg"><path d="M17.63 5.84C17.27 5.33 16.67 5 16 5L5 5.01C3.9 5.01 3 5.9 3 7v10c0 1.1.9 1.99 2 1.99L16 19c.67 0 1.27-.33 1.63-.84L22 12l-4.37-6.16z"/></svg>